<svg width="608" height="562" viewBox="0 0 608 562" fill="none" xmlns="http://www.w3.org/2000/svg">
<rect x="295.27" y="352.041" width="55" height="58" transform="rotate(25.9924 295.27 352.041)" fill="#0E60FF"/>
<rect x="279.902" y="245.281" width="93" height="98" rx="46.5" transform="rotate(10.9924 279.902 245.281)" fill="#F47458"/>
<path d="M30.6238 533.058C39.7655 550.029 59.1674 557.314 59.1674 557.314C59.1674 557.314 63.7478 537.084 54.6061 520.114C45.4644 503.143 26.0625 495.858 26.0625 495.858C26.0625 495.858 21.4822 516.088 30.6238 533.058Z" fill="#201F30"/>
<path d="M36.9071 527.475C53.4116 537.415 59.768 557.157 59.768 557.157C59.768 557.157 39.3654 560.785 22.8609 550.845C6.3564 540.906 0 521.163 0 521.163C0 521.163 20.4027 517.536 36.9071 527.475Z" fill="#F47458"/>
<path d="M406.939 34.7256H303.963V36.1981H406.939V34.7256Z" fill="#FFCEAE"/>
<path d="M378.989 35.8301H377.518V49.4512H378.989V35.8301Z" fill="#FFCEAE"/>
<path d="M334.121 35.8301H332.649V49.4512H334.121V35.8301Z" fill="#FFCEAE"/>
<path d="M459.164 105.408H356.188V106.88H459.164V105.408Z" fill="#FFCEAE"/>
<path d="M385.609 92.1553H384.138V105.776H385.609V92.1553Z" fill="#FFCEAE"/>
<path d="M430.477 92.1553H429.006V105.776H430.477V92.1553Z" fill="#FFCEAE"/>
<path d="M595.975 138.54H492.999V140.013H595.975V138.54Z" fill="#FFCEAE"/>
<path d="M522.42 125.288H520.949V138.909H522.42V125.288Z" fill="#FFCEAE"/>
<path d="M567.288 125.288H565.817V138.909H567.288V125.288Z" fill="#FFCEAE"/>
<path d="M585.678 480.172H482.701V481.644H585.678V480.172Z" fill="#FFCEAE"/>
<path d="M512.123 466.919H510.652V480.54H512.123V466.919Z" fill="#FFCEAE"/>
<path d="M556.991 466.919H555.52V480.54H556.991V466.919Z" fill="#FFCEAE"/>
<path d="M409.882 243.828H306.905V245.3H409.882V243.828Z" fill="#FFCEAE"/>
<path d="M336.328 230.575H334.856V244.196H336.328V230.575Z" fill="#FFCEAE"/>
<path d="M381.196 230.575H379.725V244.196H381.196V230.575Z" fill="#FFCEAE"/>
<path d="M442.246 421.27H339.27V422.742H442.246V421.27Z" fill="#FFCEAE"/>
<path d="M368.692 408.017H367.221V421.638H368.692V408.017Z" fill="#FFCEAE"/>
<path d="M413.56 408.017H412.089V421.638H413.56V408.017Z" fill="#FFCEAE"/>
<path d="M607.009 367.521H504.032V368.994H607.009V367.521Z" fill="#FFCEAE"/>
<path d="M533.454 354.269H531.982V367.89H533.454V354.269Z" fill="#FFCEAE"/>
<path d="M578.322 354.269H576.851V367.89H578.322V354.269Z" fill="#FFCEAE"/>
<path d="M283.699 531.546L112.728 498.336L112.967 497.105L282.708 530.076L294.307 470.361L138.939 440.182L134.449 422.976L135.661 422.659L139.952 439.1L295.777 469.368L283.699 531.546Z" fill="#201F30"/>
<path d="M129.624 532.921C136.757 534.306 143.663 529.642 145.05 522.502C146.437 515.362 141.779 508.451 134.646 507.065C127.513 505.68 120.607 510.344 119.22 517.484C117.833 524.624 122.491 531.535 129.624 532.921Z" fill="#3F3D56"/>
<path d="M256.93 557.649C264.063 559.035 270.969 554.37 272.356 547.23C273.743 540.09 269.085 533.179 261.952 531.793C254.819 530.408 247.913 535.073 246.526 542.213C245.139 549.352 249.797 556.264 256.93 557.649Z" fill="#3F3D56"/>
<path d="M461.28 307.308C465.695 308.166 469.971 305.278 470.83 300.858C471.688 296.438 468.804 292.16 464.389 291.302C459.973 290.444 455.698 293.332 454.839 297.752C453.981 302.172 456.864 306.45 461.28 307.308Z" fill="#3F3D56"/>
<path d="M317.77 453.836L125.597 416.508L110.442 272.38L387.019 326.103L386.612 326.855L317.77 453.836ZM126.746 415.454L317.107 452.43L385.103 327.009L111.866 273.935L126.746 415.454Z" fill="#201F30"/>
<path d="M253.655 413.722L148.751 411.95L127.32 336.577L278.298 339.128L278.154 339.567L253.655 413.722Z" fill="#00FFC2"/>
<path d="M392.826 314.618L391.698 314.071L405.763 285.025L452.977 294.196L452.738 295.428L406.47 286.441L392.826 314.618Z" fill="#201F30"/>
<path d="M365.187 364.665L115.868 316.237L115.629 317.468L364.948 365.896L365.187 364.665Z" fill="#201F30"/>
<path d="M342.098 407.252L120.921 364.29L120.682 365.522L341.859 408.484L342.098 407.252Z" fill="#201F30"/>
<path d="M249.223 299.976L247.993 299.737L221.805 434.557L223.035 434.796L249.223 299.976Z" fill="#201F30"/>
<path d="M304.3 310.634L269.283 443.736L270.495 444.055L305.512 310.953L304.3 310.634Z" fill="#201F30"/>
<path d="M192.957 289.006L191.713 288.847L174.304 425.372L175.547 425.53L192.957 289.006Z" fill="#201F30"/>
<path d="M437.952 53.8451C437.952 53.8451 448.705 84.4787 442.088 89.1916C435.471 93.9045 464.42 132.393 464.42 132.393L499.159 122.967L480.135 90.7625C480.135 90.7625 477.654 58.558 477.654 53.8451C477.654 49.1322 437.952 53.8451 437.952 53.8451Z" fill="#FFD6BA"/>
<path opacity="0.1" d="M437.952 53.8451C437.952 53.8451 448.705 84.4787 442.088 89.1916C435.471 93.9045 464.42 132.393 464.42 132.393L499.159 122.967L480.135 90.7625C480.135 90.7625 477.654 58.558 477.654 53.8451C477.654 49.1322 437.952 53.8451 437.952 53.8451Z" fill="black"/>
<path d="M419.904 272.209C419.904 272.209 416.765 311.482 419.904 331.905C423.043 352.327 427.751 408.882 427.751 408.882C427.751 408.882 427.751 515.707 445.014 517.278C462.278 518.849 474.833 520.42 476.402 514.136C477.972 507.852 468.555 504.71 473.263 501.568C477.972 498.426 479.541 487.43 473.263 474.862C466.986 462.294 473.263 335.047 473.263 335.047L503.082 415.166C503.082 415.166 506.221 481.146 509.36 490.571C512.498 499.997 506.221 517.278 517.207 518.849C528.192 520.42 540.748 510.994 547.025 507.852C553.303 504.71 537.609 504.71 540.748 503.139C543.887 501.568 553.303 496.855 550.164 495.284C547.025 493.713 543.886 418.307 543.886 418.307C543.886 418.307 535.255 257.284 524.269 251.001C513.283 244.717 506.221 255.54 506.221 255.54L419.904 272.209Z" fill="#201F30"/>
<path d="M448.153 510.994V523.561C448.153 523.561 434.028 557.724 448.153 557.724C462.277 557.724 473.263 561.264 473.263 556.551V514.136L448.153 510.994Z" fill="#201F30"/>
<path d="M536.683 509.752L538.744 522.149C538.744 522.149 558.282 553.532 544.349 555.849C530.416 558.166 520.159 563.46 519.386 558.811L512.428 516.97L536.683 509.752Z" fill="#201F30"/>
<path d="M446.8 75.1349C461.838 79.292 477.402 70.4596 481.563 55.4071C485.724 40.3546 476.907 24.7822 461.87 20.6251C446.832 16.4679 431.268 25.3004 427.107 40.3528C422.946 55.4053 431.763 70.9777 446.8 75.1349Z" fill="#FFD6BA"/>
<path d="M451.292 100.974C451.292 100.974 459.139 124.538 471.694 119.826L484.25 115.113L506.221 265.924C506.221 265.924 488.958 291.06 463.847 275.35C438.737 259.641 451.292 100.974 451.292 100.974Z" fill="white"/>
<path d="M473.264 96.261L480.326 81.3369C480.326 81.3369 521.915 100.974 528.193 107.258C534.47 113.542 534.47 122.967 534.47 122.967L523.485 162.241C523.485 162.241 526.623 248.644 526.623 251.786C526.623 254.928 537.609 272.208 529.762 265.924C521.915 259.64 520.346 253.357 514.068 262.782C507.791 272.208 493.666 283.205 493.666 283.205L473.264 96.261Z" fill="#F47458"/>
<path d="M528.193 209.37L523.484 253.357C523.484 253.357 495.235 278.492 501.513 280.063C507.79 281.634 510.929 275.35 510.929 275.35C510.929 275.35 521.915 286.347 528.193 280.063C534.47 273.779 550.164 214.083 550.164 214.083L528.193 209.37Z" fill="#FFD6BA"/>
<path d="M465.564 9.52152C459.588 7.63684 453.158 5.74427 447.168 7.59335C444.375 8.58006 441.765 10.0248 439.445 11.8684C432.754 16.7704 426.29 23.4783 425.979 31.7695L428.349 31.5258C427.774 33.6031 426.746 35.5269 425.338 37.158C425.881 36.3647 426.498 38.0604 425.983 38.8724L421.489 45.9569C425.754 45.6064 429.776 49.8152 429.235 54.0642C431.989 45.1535 435.768 35.1079 444.504 31.8597C448.91 30.2217 453.781 30.6965 458.451 31.2133C462.759 31.6901 467.258 32.2528 470.834 34.7044C474.409 37.1559 476.655 42.1308 474.63 45.9679C476.626 45.8433 478.312 47.6775 478.741 49.6316C479.17 51.5857 478.661 53.6104 478.155 55.5464C479.717 57.457 482.681 55.34 484.093 53.3142C487.407 48.5591 490.609 43.4071 491.128 37.6337C491.646 31.8603 488.624 25.3704 483.047 23.8087C483.931 23.251 484.563 22.3715 484.81 21.356L480.317 19.6951C481.531 19.8524 482.762 19.5825 483.799 18.9316C481.39 20.4555 468.522 10.4542 465.564 9.52152Z" fill="#201F30"/>
<path d="M459.139 91.5482C459.139 91.5482 446.363 79.0162 441.765 79.7839C437.168 80.5515 430.89 91.5482 430.89 91.5482C430.89 91.5482 393.224 104.116 394.794 116.684C396.363 129.251 413.627 190.518 413.627 190.518C413.627 190.518 427.751 264.353 415.196 272.208C402.641 280.063 474.833 300.485 476.403 291.06C477.972 281.634 481.111 187.377 476.403 173.238C471.694 159.099 459.139 91.5482 459.139 91.5482Z" fill="#F47458"/>
<path d="M514.068 116.684H533.474C533.474 116.684 547.026 176.38 548.595 182.664C550.165 188.948 553.303 218.796 551.734 218.796C550.165 218.796 518.777 212.512 518.777 217.225L514.068 116.684Z" fill="#F47458"/>
<path d="M513.411 274.511H439.121C431.871 241.128 431.265 208.875 439.121 178.059H513.411C501.422 208.32 500.673 240.353 513.411 274.511Z" fill="#FFCEAE"/>
<path d="M408.918 228.509L430.89 237.934C430.89 237.934 473.263 244.218 473.263 226.938C473.263 209.657 430.89 219.083 430.89 219.083L416.764 214.562L408.918 228.509Z" fill="#FFD6BA"/>
<path d="M413.626 107.258L394.793 111.971L380.668 195.231C380.668 195.231 375.96 217.225 383.807 218.796C391.654 220.367 413.626 232.934 413.626 232.934C413.626 232.934 416.765 209.37 423.042 209.37L407.348 196.802L416.765 141.819L413.626 107.258Z" fill="#F47458"/>
<path d="M147.292 268.125H44.3154V269.597H147.292V268.125Z" fill="#FFCEAE"/>
<path d="M73.7377 254.872H72.2666V268.493H73.7377V254.872Z" fill="#FFCEAE"/>
<path d="M118.606 254.872H117.135V268.493H118.606V254.872Z" fill="#FFCEAE"/>
<path d="M183.334 50.1875H80.3574V51.66H183.334V50.1875Z" fill="#FFCEAE"/>
<path d="M155.383 51.292H153.912V64.9131H155.383V51.292Z" fill="#FFCEAE"/>
<path d="M110.515 51.292H109.044V64.9131H110.515V51.292Z" fill="#FFCEAE"/>
<path d="M307.046 195.233H204.069V196.706H307.046V195.233Z" fill="#FFCEAE"/>
<path d="M279.095 196.338H277.624V209.959H279.095V196.338Z" fill="#FFCEAE"/>
<path d="M234.227 196.338H232.756V209.959H234.227V196.338Z" fill="#FFCEAE"/>
<path d="M111.986 194.497H9.00977V195.97H111.986V194.497Z" fill="#FFCEAE"/>
<path d="M84.0356 195.602H82.5645V209.223H84.0356V195.602Z" fill="#FFCEAE"/>
<path d="M39.1664 195.602H37.6953V209.223H39.1664V195.602Z" fill="#FFCEAE"/>
<path d="M235.558 120.87H132.581V122.342H235.558V120.87Z" fill="#FFCEAE"/>
<path d="M162.003 107.617H160.532V121.238H162.003V107.617Z" fill="#FFCEAE"/>
<path d="M206.871 107.617H205.4V121.238H206.871V107.617Z" fill="#FFCEAE"/>
</svg>
